<?xml version="1.0" encoding="UTF-8" standalone="no"?>
<!-- Created with Inkscape (http://www.inkscape.org/) -->

<svg
   width="512"
   height="512"
   viewBox="0 0 135.46667 135.46667"
   version="1.1"
   id="svg1"
   xml:space="preserve"
   inkscape:export-filename="nextAvatar.png"
   inkscape:export-xdpi="96"
   inkscape:export-ydpi="96"
   inkscape:version="1.4 (86a8ad7, 2024-10-11)"
   sodipodi:docname="next-avatar-icon.svg"
   xmlns:inkscape="http://www.inkscape.org/namespaces/inkscape"
   xmlns:sodipodi="http://sodipodi.sourceforge.net/DTD/sodipodi-0.dtd"
   xmlns="http://www.w3.org/2000/svg"
   xmlns:svg="http://www.w3.org/2000/svg"><sodipodi:namedview
     id="namedview1"
     pagecolor="#ffffff"
     bordercolor="#000000"
     borderopacity="0.25"
     inkscape:showpageshadow="2"
     inkscape:pageopacity="0.0"
     inkscape:pagecheckerboard="0"
     inkscape:deskcolor="#d1d1d1"
     inkscape:document-units="mm"
     inkscape:zoom="1.4702524"
     inkscape:cx="203.70652"
     inkscape:cy="294.16718"
     inkscape:window-width="2560"
     inkscape:window-height="1369"
     inkscape:window-x="-8"
     inkscape:window-y="-8"
     inkscape:window-maximized="1"
     inkscape:current-layer="layer1" /><defs
     id="defs1" /><g
     inkscape:label="Layer 1"
     inkscape:groupmode="layer"
     id="layer1"><path
       d="M 35.68279,28.707684 C 53.896684,13.872874 79.94141,13.569662 98.498031,27.977339 l -10.116988,10.1233 c -1.801541,1.800471 -2.340732,4.509063 -1.366033,6.862191 h -1.17e-4 c 0.975162,2.351975 3.271006,3.885021 5.817127,3.884377 h 31.47791 c 3.47695,-9e-6 6.29558,-2.818645 6.29557,-6.295598 V 11.073705 C 130.6045,5.4660514 123.82476,2.6581112 119.85896,6.6227119 L 107.49444,18.987247 C 84.698648,0.3527258 52.031089,0.00685737 28.848856,18.153302 16.902592,27.504524 9.120144,40.47894 6.1086102,54.499721 3.2761947,67.686581 15.281556,70.821613 18.376976,55.807545 21.435395,44.867817 27.18089,35.632292 35.68279,28.707684 Z"
       style="fill:#ffffff;fill-opacity:1;stroke:#ffffff;stroke-width:8.11365;stroke-dasharray:none;stroke-opacity:1"
       id="path1"
       sodipodi:nodetypes="sccccccccccsscs"
       inkscape:label="half arrow" /><path
       d="m 87.014893,44.96283 c 0.975162,2.351975 3.271006,3.885021 5.817127,3.884377 h 31.47791 c 3.47695,-9e-6 6.29558,-2.818645 6.29557,-6.295598 V 11.073705 C 130.6045,5.4660514 123.82476,2.6581112 119.85896,6.6227119 L 107.49444,18.987247 C 84.698648,0.3527258 52.031089,0.00685735 28.848856,18.153302 5.6668614,36.29956 -1.8357532,68.089417 10.777257,94.693245 23.390267,121.29707 52.750481,135.61008 81.472243,129.1485 110.19429,122.68686 130.60353,97.177013 130.6055,67.733958 c -0.0197,-8.374424 -12.5715,-8.374424 -12.59114,0 0.0487,23.493126 -16.12096,43.912762 -38.997597,49.249092 C 56.140341,122.31935 32.61056,111.16036 22.258217,90.071658 11.905874,68.982961 17.469074,43.542349 35.68279,28.707684 53.896684,13.872874 79.94141,13.569662 98.498031,27.977339 l -10.116988,10.1233 c -1.801541,1.800471 -2.340732,4.509063 -1.366033,6.862191 z"
       style="display:none;fill:#ffffff;fill-opacity:1;stroke:#000000;stroke-width:8.11365;stroke-dasharray:none;stroke-opacity:1"
       id="path2"
       sodipodi:nodetypes="cccccccsssccssscccc" /><ellipse
       style="fill:#ffffff;fill-opacity:1;stroke:#ffffff;stroke-width:6.00001;stroke-dasharray:none;stroke-opacity:1"
       id="path11"
       cx="66.764328"
       cy="62.625301"
       rx="29.872986"
       ry="29.333115" /><path
       style="fill:#ffffff;fill-opacity:1;stroke:#ffffff;stroke-width:6.77485;stroke-dasharray:none;stroke-opacity:1"
       id="path12"
       sodipodi:type="arc"
       sodipodi:cx="66.404228"
       sodipodi:cy="-132.06311"
       sodipodi:rx="41.901413"
       sodipodi:ry="30.451031"
       sodipodi:start="0"
       sodipodi:end="3.1338229"
       sodipodi:arc-type="slice"
       d="m 108.30564,-132.06311 a 41.901413,30.451031 0 0 1 -41.73863,30.4508 41.901413,30.451031 0 0 1 -42.06293,-30.21421 l 41.900148,-0.23659 z"
       transform="scale(1,-1)" /></g></svg>
